# xmcd
# 
# Track frame offsets:
#     150
#     17955
#     30077
#     42352
#     54355
#     67692
#     82165
#     96597
#     109697
#     134942
#     142272
#     155287
#     166012
#     179287
# 
# Disc length: 2691
# 
# Revision: 18
# Processed by: cddbd v1.5.2PL0 Copyright (c) Steve Scherf et al.
# Submitted via: fre:ac v1.0.31
# 
DISCID=bb0a810e
DTITLE=Fleetwood Mac - Greatest Hits
DYEAR=1989
DGENRE=Blues
TTITLE0=Need Your Love So Bad
TTITLE1=Coming Home
TTITLE2=Rambling Pony
TTITLE3=The Big Boat with Eddy Boyd (Piano, vocal)
TTITLE4=I Believe My Time Ain't Long
TTITLE5=The Sun Is Shining
TTITLE6=Albatross
TTITLE7=Black Magic Woman
TTITLE8=Just The Blues with Eddy Boyd (Piano, vocal)
TTITLE9=Jigsaw Puzzle Blues
TTITLE10=Looking For Somebody
TTITLE11=Stop Messin' Round
TTITLE12=Shake Your Money Maker
TTITLE13=Love That Burns
EXTD=
EXTT0=Little Willie John - 08/1969
EXTT1=Elmore James - 01/1969
EXTT2=Peter Green - 08/1969
EXTT3=Eddie Boyd - 08/1969
EXTT4=Robert Johnson - 08/1969
EXTT5=Elmore James - 08/1969
EXTT6=Peter Green - 01/1969
EXTT7=Peter Green - 01/1969
EXTT8=Eddie Boyd - 08/1969
EXTT9=Danny Kirwan - 01/1969
EXTT10=Peter Green - 02/1968
EXTT11=Clifford Adams - Peter Green - 08/1968
EXTT12=Elmore James - 02/1968
EXTT13=Clifford Adams - Peter Green - 08/1968
PLAYORDER=
